<?xml version="1.0" encoding="UTF-8"?>
<svg width="735.24" height="735.38" version="1.1" viewBox=".75 .625 166.15 165.6" xmlns="http://www.w3.org/2000/svg" xmlns:cc="http://creativecommons.org/ns#" xmlns:dc="http://purl.org/dc/elements/1.1/" xmlns:rdf="http://www.w3.org/1999/02/22-rdf-syntax-ns#"><metadata><rdf:RDF><cc:Work rdf:about=""><dc:format>image/svg+xml</dc:format><dc:type rdf:resource="http://purl.org/dc/dcmitype/StillImage"/><dc:title/></cc:Work></rdf:RDF></metadata><path d="m83.81.33045c-7.397 18.134-11.858 29.997-20.093 47.593 5.049 5.352 11.246 11.584 21.311 18.624-10.82-4.453-18.2-8.924-23.717-13.562-10.539 21.992-27.052 53.32-60.561 113.53 26.338-15.2 46.753-24.58 65.78-28.15-.85839-3.6978-1.2779-7.484-1.25-11.28l.031-.85c.418-16.87 9.195-29.845 19.593-28.964s18.478 15.284 18.058 32.154c-.07 3.18-.43 6.23-1.06 9.06 18.82 3.68 39.02 13.03 65 28.03-5.12-9.43-9.7-17.93-14.06-26.03-6.88-5.33-14.05-12.27-28.69-19.78 10.06 2.62 17.26 5.63 22.88 9-44.4-82.668-47.993-93.651-63.223-129.37zm73.81 144.5v-4.55h-1.7v-.61h4.09v.61h-1.71v4.55zm3.1 0v-5.16h1.03l1.22 3.66c.12.34.2.59.25.76.06-.19.15-.46.28-.83l1.23-3.59h.92v5.16h-.66v-4.32l-1.5 4.32h-.61l-1.5-4.39v4.39z" fill="#1793d1"/></svg>
