<?xml version="1.0" encoding="UTF-8"?>
<svg width="514.71" height="659.31" version="1.1" viewBox="0 0 420 537.91" xmlns="http://www.w3.org/2000/svg" xmlns:cc="http://creativecommons.org/ns#" xmlns:dc="http://purl.org/dc/elements/1.1/" xmlns:rdf="http://www.w3.org/1999/02/22-rdf-syntax-ns#" xmlns:xlink="http://www.w3.org/1999/xlink"><metadata><rdf:RDF><cc:Work rdf:about=""><dc:format>image/svg+xml</dc:format><dc:type rdf:resource="http://purl.org/dc/dcmitype/StillImage"/><dc:title>storybook-logo-final</dc:title></cc:Work></rdf:RDF></metadata><title>storybook-logo-final</title><desc>Created using Figma</desc><g transform="matrix(2 0 0 2 -4332 -522.05)"><clipPath id="a" clip-rule="evenodd"><path d="m2161 253h1020v288h-1020z" fill="#fff"/></clipPath><g clip-path="url(#a)"><use transform="translate(2166,275)" width="100%" height="100%" fill="#b57ee5" xlink:href="#b"/><use transform="translate(2180,261)" width="100%" height="100%" fill="#f1618c" xlink:href="#c"/><use transform="translate(2326,261.5)" width="100%" height="100%" fill="#ffffff" xlink:href="#d"/><use transform="translate(2220,301)" width="100%" height="100%" fill="#ffffff" xlink:href="#k"/></g></g><defs><path id="b" d="m21 246-12-246h-9l9 246z"/><path id="c" d="m12 260-12-246 196-14v269z"/><path id="d" d="m0 35.5 2.5-33.5 23.5-2v35.5l-11.818-10.69z"/><path id="k" d="m74.64 65.28 38.64-.96c.96-37.44-18.48-55.92-52.32-55.92s-52.8 19.2-52.8 48c0 50.16 64.8 51.12 64.8 78.48 0 7.68-3.6 12.24-11.52 12.24-10.32 0-14.4-6.72-13.92-25.44h-40.56c-3.12 46.32 24 56.88 54.96 56.88 30 0 53.52-13.92 53.52-44.16 0-53.76-65.76-52.32-65.76-78.96 0-10.8 7.68-12.24 12.24-12.24 4.8 0 13.44 1.92 12.72 22.08z"/></defs></svg>
